<svg xmlns="http://www.w3.org/2000/svg" version="1.1" xmlns:xlink="http://www.w3.org/1999/xlink" xmlns:svgjs="http://svgjs.dev/svgjs" width="1500" height="1500" viewBox="0 0 1500 1500"><rect width="1500" height="1500" fill="#ffffff"></rect><g transform="matrix(0.6666666666666666,0,0,0.6666666666666666,249.39393939393938,696.4632928352106)"><svg viewBox="0 0 396 43" data-background-color="#ffffff" preserveAspectRatio="xMidYMid meet" height="162" width="1500" xmlns="http://www.w3.org/2000/svg" xmlns:xlink="http://www.w3.org/1999/xlink"><g id="tight-bounds" transform="matrix(1,0,0,1,0.2400000000000091,-0.184459184389425)"><svg viewBox="0 0 395.52 43.36891836877885" height="43.36891836877885" width="395.52"><g><svg viewBox="0 0 455.92699570172084 49.99256841300191" height="43.36891836877885" width="395.52"><g transform="matrix(1,0,0,1,60.406995701720845,2.9389228298279164)"><svg viewBox="0 0 395.52 44.11472275334608" height="44.11472275334608" width="395.52"><g id="textblocktransform"><svg viewBox="0 0 395.52 44.11472275334608" height="44.11472275334608" width="395.52" id="textblock"><g><svg viewBox="0 0 395.52 44.11472275334608" height="44.11472275334608" width="395.52"><g transform="matrix(1,0,0,1,0,0)"><svg width="395.52" viewBox="1.9 -43.35 392.21000000000004 43.75" height="44.11472275334608" data-palette-color="#335a02"><path d="M10.55 0L1.9 0 1.9-42.95 19.1-42.95 19.1-34.6 10.55-34.6 10.55-27.75 18.65-27.75 18.65-19.5 10.55-19.5 10.55 0ZM21.85 0L21.85-42.95 35.05-42.95Q38.2-42.95 39.92-41.53 41.65-40.1 42.25-37.52 42.85-34.95 42.85-30.95L42.85-30.95Q42.85-27.3 41.9-25.25 40.95-23.2 38.6-22.4L38.6-22.4Q40.55-22 41.42-20.45 42.3-18.9 42.3-16.25L42.3-16.25 42.2 0 33.8 0 33.8-16.8Q33.8-18.6 33.1-19.1 32.4-19.6 30.55-19.6L30.55-19.6 30.55 0 21.85 0ZM30.6-27.05L32.65-27.05Q34.45-27.05 34.45-30.95L34.45-30.95Q34.45-32.65 34.3-33.5 34.15-34.35 33.75-34.68 33.35-35 32.6-35L32.6-35 30.6-35 30.6-27.05ZM63.45 0L45.7 0 45.7-42.95 62.9-42.95 62.9-34.65 54.45-34.65 54.45-26.3 62.55-26.3 62.55-18.2 54.45-18.2 54.45-8.35 63.45-8.35 63.45 0ZM76.49 0.4Q70.64 0.4 68.04-2.5 65.44-5.4 65.44-11.85L65.44-11.85 65.44-16.05 73.89-16.05 73.89-10.7Q73.89-7.5 75.94-7.5L75.94-7.5Q77.09-7.5 77.54-8.18 77.99-8.85 77.99-10.45L77.99-10.45Q77.99-12.55 77.49-13.93 76.99-15.3 76.22-16.23 75.44-17.15 73.44-19.1L73.44-19.1 69.74-22.8Q65.44-27 65.44-32.1L65.44-32.1Q65.44-37.6 67.97-40.48 70.49-43.35 75.34-43.35L75.34-43.35Q81.14-43.35 83.69-40.28 86.24-37.2 86.24-30.65L86.24-30.65 77.49-30.65 77.44-33.6Q77.44-34.45 76.97-34.95 76.49-35.45 75.64-35.45L75.64-35.45Q74.64-35.45 74.14-34.9 73.64-34.35 73.64-33.4L73.64-33.4Q73.64-31.3 76.04-29.05L76.04-29.05 81.04-24.25Q82.79-22.55 83.94-21.03 85.09-19.5 85.79-17.43 86.49-15.35 86.49-12.5L86.49-12.5Q86.49-6.15 84.17-2.88 81.84 0.4 76.49 0.4L76.49 0.4ZM97.89 0L89.34 0 89.34-42.95 97.89-42.95 97.89-27.6 101.94-27.6 101.94-42.95 110.49-42.95 110.49 0 101.94 0 101.94-19.5 97.89-19.5 97.89 0ZM114.29 0L114.29-42.95 125.94-42.95Q130.64-42.95 132.76-40.65 134.89-38.35 134.89-33.15L134.89-33.15 134.89-31.25Q134.89-25.1 130.49-23.9L130.49-23.9Q133.19-23.2 134.29-20.65 135.39-18.1 135.39-13.9L135.39-13.9Q135.39-7.05 133.34-3.53 131.29 0 125.94 0L125.94 0 114.29 0ZM122.69-26.8L124.44-26.8Q125.54-26.8 125.94-27.63 126.34-28.45 126.34-29.95L126.34-29.95 126.34-34.25Q126.34-36.35 124.49-36.35L124.49-36.35 122.69-36.35 122.69-26.8ZM123.54-7.55Q126.89-7.55 126.89-10.75L126.89-10.75 126.89-16.1Q126.89-18.05 126.31-19.05 125.74-20.05 124.29-20.05L124.29-20.05 122.69-20.05 122.69-7.6 123.54-7.55ZM146.14 0L137.84 0 137.84-42.95 146.14-42.95 146.14 0ZM161.88 0L153.28 0 153.28-34.7 148.18-34.7 148.18-42.95 166.98-42.95 166.98-34.7 161.88-34.7 161.88 0ZM187.13 0L169.38 0 169.38-42.95 186.58-42.95 186.58-34.65 178.13-34.65 178.13-26.3 186.23-26.3 186.23-18.2 178.13-18.2 178.13-8.35 187.13-8.35 187.13 0ZM200.18 0.4Q194.33 0.4 191.73-2.5 189.13-5.4 189.13-11.85L189.13-11.85 189.13-16.05 197.58-16.05 197.58-10.7Q197.58-7.5 199.63-7.5L199.63-7.5Q200.78-7.5 201.23-8.18 201.68-8.85 201.68-10.45L201.68-10.45Q201.68-12.55 201.18-13.93 200.68-15.3 199.9-16.23 199.13-17.15 197.13-19.1L197.13-19.1 193.43-22.8Q189.13-27 189.13-32.1L189.13-32.1Q189.13-37.6 191.65-40.48 194.18-43.35 199.03-43.35L199.03-43.35Q204.83-43.35 207.38-40.28 209.93-37.2 209.93-30.65L209.93-30.65 201.18-30.65 201.13-33.6Q201.13-34.45 200.65-34.95 200.18-35.45 199.33-35.45L199.33-35.45Q198.33-35.45 197.83-34.9 197.33-34.35 197.33-33.4L197.33-33.4Q197.33-31.3 199.73-29.05L199.73-29.05 204.73-24.25Q206.48-22.55 207.63-21.03 208.78-19.5 209.48-17.43 210.18-15.35 210.18-12.5L210.18-12.5Q210.18-6.15 207.85-2.88 205.53 0.4 200.18 0.4L200.18 0.4ZM234.72 0.4Q230.02 0.4 227.2-2.55 224.37-5.5 224.37-10.65L224.37-10.65 224.37-30.45Q224.37-36.85 226.92-40.1 229.47-43.35 234.92-43.35L234.92-43.35Q239.67-43.35 242.57-40.75 245.47-38.15 245.47-33.25L245.47-33.25 245.47-25.85 236.92-25.85 236.92-32.2Q236.92-34.05 236.47-34.75 236.02-35.45 234.92-35.45L234.92-35.45Q233.77-35.45 233.35-34.65 232.92-33.85 232.92-32.3L232.92-32.3 232.92-10.75Q232.92-9.05 233.42-8.28 233.92-7.5 234.92-7.5L234.92-7.5Q236.92-7.5 236.92-10.75L236.92-10.75 236.92-18.5 245.57-18.5 245.57-10.4Q245.57 0.4 234.72 0.4L234.72 0.4ZM255.62 0L247.27 0 251.42-42.95 265.97-42.95 270.07 0 261.92 0 261.32-6.95 256.12-6.95 255.62 0ZM258.37-35.65L256.77-13.8 260.67-13.8 258.77-35.65 258.37-35.65ZM284.97 0L276.37 0 276.37-34.7 271.27-34.7 271.27-42.95 290.07-42.95 290.07-34.7 284.97-34.7 284.97 0ZM310.22 0L292.47 0 292.47-42.95 309.67-42.95 309.67-34.65 301.22-34.65 301.22-26.3 309.32-26.3 309.32-18.2 301.22-18.2 301.22-8.35 310.22-8.35 310.22 0ZM313.06 0L313.06-42.95 326.26-42.95Q329.41-42.95 331.14-41.53 332.86-40.1 333.46-37.52 334.06-34.95 334.06-30.95L334.06-30.95Q334.06-27.3 333.11-25.25 332.16-23.2 329.81-22.4L329.81-22.4Q331.76-22 332.64-20.45 333.51-18.9 333.51-16.25L333.51-16.25 333.41 0 325.01 0 325.01-16.8Q325.01-18.6 324.31-19.1 323.61-19.6 321.76-19.6L321.76-19.6 321.76 0 313.06 0ZM321.81-27.05L323.86-27.05Q325.66-27.05 325.66-30.95L325.66-30.95Q325.66-32.65 325.51-33.5 325.36-34.35 324.96-34.68 324.56-35 323.81-35L323.81-35 321.81-35 321.81-27.05ZM344.81 0L336.51 0 336.51-42.95 344.81-42.95 344.81 0ZM356.66 0L348.26 0 348.26-42.95 357.11-42.95 361.06-22.4 361.06-42.95 369.36-42.95 369.36 0 360.96 0 356.66-21.5 356.66 0ZM382.01 0.4Q377.36 0.4 375.08-2.88 372.81-6.15 372.81-12.8L372.81-12.8 372.81-31.3Q372.81-37.25 375.46-40.3 378.11-43.35 383.36-43.35L383.36-43.35Q387.61-43.35 389.96-41.65 392.31-39.95 393.21-36.7 394.11-33.45 394.11-28.35L394.11-28.35 385.71-28.35 385.71-32.2Q385.71-33.75 385.28-34.6 384.86-35.45 383.76-35.45L383.76-35.45Q381.31-35.45 381.31-32.25L381.31-32.25 381.31-11.45Q381.31-9.5 381.81-8.5 382.31-7.5 383.56-7.5L383.56-7.5Q384.81-7.5 385.31-8.5 385.81-9.5 385.81-11.45L385.81-11.45 385.81-17.6 383.51-17.6 383.51-25 394.01-25 394.01 0 390.56 0 389.11-3.6Q386.81 0.4 382.01 0.4L382.01 0.4Z" opacity="1" transform="matrix(1,0,0,1,0,0)" fill="#000000" class="wordmark-text-0" data-fill-palette-color="primary" id="text-0"></path></svg></g></svg></g></svg></g></svg></g><g><svg viewBox="0 0 49.99256841300191 49.99256841300191" height="49.99256841300191" width="49.99256841300191"><g><svg xmlns="http://www.w3.org/2000/svg" xmlns:xlink="http://www.w3.org/1999/xlink" version="1.0" x="0" y="0" viewBox="20 20 60 60" enable-background="new 0 0 100 100" xml:space="preserve" height="49.99256841300191" width="49.99256841300191" class="icon-icon-0" data-fill-palette-color="accent" id="icon-0"><path d="M20 26.667A6.67 6.67 0 0 1 26.667 33.334V63.334C26.667 72.539 34.128 80 43.333 80S60 72.539 60 63.334V40A3.33 3.33 0 0 1 63.333 36.667 3.33 3.33 0 0 1 66.667 40V56.666C66.667 64.023 72.637 70 80 70V63.334A6.67 6.67 0 0 1 73.333 56.666V40C73.333 34.476 68.854 30 63.333 30S53.333 34.476 53.333 40V63.334C53.333 68.857 48.854 73.334 43.333 73.334S33.333 68.857 33.333 63.334V33.334C33.333 25.973 27.363 20 20 20z" fill="#000000" data-fill-palette-color="accent"></path></svg></g></svg></g></svg></g><defs></defs></svg><rect width="395.52" height="43.36891836877885" fill="none" stroke="none" visibility="hidden"></rect></g></svg></g></svg>